# xmcd
#
# Track frame offsets:
#	150
#	16360
#	36000
#	54395
#	78597
#	103015
#	122070
#	142982
#	165870
#	182782
#
# Disc length: 2716 seconds
# Revision: 0
# Processed by: cddbd v1.5.2PL0 Copyright (c) Steve Scherf et al.
# Submitted via: dBpowerAMP V12.0
#
DISCID=770a9a0a
DTITLE=Serene and Pearl - Crazy Stories
DYEAR=1995
DGENRE=Religious
TTITLE0=Still Have to Love You
TTITLE1=Wouldn't It Be Cool
TTITLE2=Heaven in You
TTITLE3=Deep Water
TTITLE4=Gone, Gone, Gone
TTITLE5=Crazy Stories
TTITLE6=Walk in Your Shoes
TTITLE7=Everything
TTITLE8=Thief In the Night
TTITLE9=Every Day
EXTD=
EXTT0=
EXTT1=
EXTT2=
EXTT3=
EXTT4=
EXTT5=
EXTT6=
EXTT7=
EXTT8=
EXTT9=
PLAYORDER=
